<svg width="15" height="14" viewBox="0 0 15 14" fill="none" xmlns="http://www.w3.org/2000/svg">
<path d="M8.08333 9.33333H7.5V7H6.91667M7.5 4.66667H7.50583M12.75 7C12.75 7.68944 12.6142 8.37213 12.3504 9.00909C12.0865 9.64605 11.6998 10.2248 11.2123 10.7123C10.7248 11.1998 10.146 11.5865 9.50909 11.8504C8.87213 12.1142 8.18944 12.25 7.5 12.25C6.81056 12.25 6.12787 12.1142 5.49091 11.8504C4.85395 11.5865 4.2752 11.1998 3.78769 10.7123C3.30018 10.2248 2.91347 9.64605 2.64963 9.00909C2.3858 8.37213 2.25 7.68944 2.25 7C2.25 5.60761 2.80312 4.27226 3.78769 3.28769C4.77226 2.30312 6.10761 1.75 7.5 1.75C8.89239 1.75 10.2277 2.30312 11.2123 3.28769C12.1969 4.27226 12.75 5.60761 12.75 7Z" stroke="black" stroke-width="1.33333" stroke-linecap="round" stroke-linejoin="round"/>
</svg>
